# xmcd
# 
# Track frame offsets:
#     150
#     21133
#     41083
#     65033
# 
# Disc length: 1466
# 
# Revision: 1
# Processed by: cddbd v1.5.2PL0 Copyright (c) Steve Scherf et al.
# Submitted via: fre:ac v1.0.17
# 
DISCID=3205b804
DTITLE=イルミネーションスターズ - THE IDOLM@STER SHINY COLORS BRILLI@NT WING 02 ヒカリのdestination
DYEAR=2018
DGENRE=Game
TTITLE0=ヒカリのdestination
TTITLE1=虹になれ
TTITLE2=Spread the Wings!! (illumination STARS Ver.)
TTITLE3=スペシャルオーディオドラマ「イルミネーションスターズ・イン・ストア」
EXTD=
EXTT0=
EXTT1=
EXTT2=
EXTT3=
PLAYORDER=
